<svg xmlns="http://www.w3.org/2000/svg" viewBox="0 0 174.63 85.65"><defs><style>.cls-1{fill:#444;}.cls-2{fill:#b29a57;}.cls-3{font-size:23.99px;fill:#707070;font-family:Jalnan, Jalnan;}</style></defs><title>logo</title><g id="레이어_2" data-name="레이어 2"><g id="레이어_1-2" data-name="레이어 1"><path class="cls-1" d="M25.27,47.05a10.53,10.53,0,0,1-1.76-.17,10.89,10.89,0,0,1-1.88-.52,5.52,5.52,0,0,1-1.56-.85,2.49,2.49,0,0,1-.89-1.25L13.44,23.5,10.82,49.09H.07L4.85,8.88a5.53,5.53,0,0,1,.71-2.33A6.45,6.45,0,0,1,7,4.82,6.65,6.65,0,0,1,8.86,3.71a7.71,7.71,0,0,1,2-.52A11,11,0,0,1,13,3.31,7,7,0,0,1,15.23,4,6.69,6.69,0,0,1,17.14,5.5a5.73,5.73,0,0,1,1.25,2.36l6.88,26.05,6.88-26A5.94,5.94,0,0,1,33.37,5.5,6.19,6.19,0,0,1,35.28,4a7.28,7.28,0,0,1,2.25-.71,11,11,0,0,1,2.19-.12,7.82,7.82,0,0,1,2,.52,6.65,6.65,0,0,1,1.85,1.11A6.45,6.45,0,0,1,45,6.55a5.53,5.53,0,0,1,.71,2.33l4.78,40.21H39.72L37.16,23.33l-5.8,20.93a2.55,2.55,0,0,1-.89,1.25,5.52,5.52,0,0,1-1.56.85,10.89,10.89,0,0,1-1.88.52A10.53,10.53,0,0,1,25.27,47.05Z"/><path class="cls-1" d="M55.53,6.27a4.53,4.53,0,0,1,1.76-4,7.62,7.62,0,0,1,8.3,0,4.52,4.52,0,0,1,1.77,4,5.37,5.37,0,0,1-.49,2.41,4.32,4.32,0,0,1-1.28,1.62,4.88,4.88,0,0,1-1.87.91,9.07,9.07,0,0,1-4.55,0,4.92,4.92,0,0,1-1.88-.91A4.42,4.42,0,0,1,56,8.68,5.51,5.51,0,0,1,55.53,6.27Zm0,13.36a5.15,5.15,0,0,1,1.74-4.32,6.9,6.9,0,0,1,8.25,0,5.18,5.18,0,0,1,1.73,4.32V49.09H55.58Z"/><path class="cls-1" d="M84.19,24.41c-.07.68.33,1.19,1.23,1.54A27.82,27.82,0,0,0,89.94,27l1.11.22,1,.23q5.12,1.31,7.51,4.47t1.76,8.33a9.91,9.91,0,0,1-1.62,4.35,10.16,10.16,0,0,1-3.33,3,16.06,16.06,0,0,1-4.69,1.79,25.24,25.24,0,0,1-5.6.6c-1,0-2-.05-3-.14a27.33,27.33,0,0,1-3.1-.48,18.11,18.11,0,0,1-3-.94A9.63,9.63,0,0,1,74.52,47a6.32,6.32,0,0,1-2-3.1,4.26,4.26,0,0,1,.66-3.67,3.7,3.7,0,0,1,1.56-1.31,6.27,6.27,0,0,1,2.08-.45,3.93,3.93,0,0,1,2.16.4c.53.3,1,.6,1.54.91a7.91,7.91,0,0,0,2.61.91,17.73,17.73,0,0,0,3.36.34A4.67,4.67,0,0,0,89,40.45a1.94,1.94,0,0,0,1-1.37c.08-.68-.5-1.22-1.73-1.62a52.47,52.47,0,0,0-5.15-1.28c-.42-.07-.82-.16-1.22-.25s-.77-.2-1.11-.32a13.35,13.35,0,0,1-5.23-2.75A9.57,9.57,0,0,1,72.93,29a10.13,10.13,0,0,1-.51-4.38,13.29,13.29,0,0,1,1.14-4.27A10.38,10.38,0,0,1,75.8,17.3,11.86,11.86,0,0,1,79,15.17a16.91,16.91,0,0,1,3.84-1.23A22.43,22.43,0,0,1,87,13.55a24.23,24.23,0,0,1,5.85.62,16,16,0,0,1,3.93,1.48,7.48,7.48,0,0,1,2.79,2.65,4.31,4.31,0,0,1,.45,3.61,3.59,3.59,0,0,1-1.7,2.27,5.8,5.8,0,0,1-2.74.63,5,5,0,0,1-1.28-.2,3.44,3.44,0,0,1-1.1-.48,5.47,5.47,0,0,0-1.26-.6c-.49-.17-1-.33-1.56-.49a13.51,13.51,0,0,0-1.68-.34,12.78,12.78,0,0,0-1.53-.11,3.79,3.79,0,0,0-2.16.54A1.71,1.71,0,0,0,84.19,24.41Z"/><path class="cls-1" d="M122.58,50.06a24.71,24.71,0,0,1-6.2-.8,16.73,16.73,0,0,1-5.66-2.61,13.48,13.48,0,0,1-4.09-4.86,16.29,16.29,0,0,1-1.56-7.48v-5a16.91,16.91,0,0,1,1.5-7.56,13.91,13.91,0,0,1,3.87-4.84,14.9,14.9,0,0,1,5.23-2.59,21.8,21.8,0,0,1,5.61-.76,23.2,23.2,0,0,1,5.77.71,11.71,11.71,0,0,1,5,2.7,13.87,13.87,0,0,1,3.56,5.54A26.59,26.59,0,0,1,137,31.69c0,.49,0,1.08-.08,1.76s-.13,1.27-.2,1.77H116.33v.05a4.5,4.5,0,0,0,.62,2.45,5.39,5.39,0,0,0,1.6,1.59,6.29,6.29,0,0,0,2.1.88,9.93,9.93,0,0,0,2.16.26,24,24,0,0,0,3.24-.17,12.68,12.68,0,0,0,2.28-.57l1.28-.48a6.17,6.17,0,0,1,1.39-.37,5.24,5.24,0,0,1,2.7.34A3.27,3.27,0,0,1,135.49,41a4.32,4.32,0,0,1,0,3.84,7.29,7.29,0,0,1-2.93,2.93,11.54,11.54,0,0,1-1.73.79,22.06,22.06,0,0,1-2.39.74,23.46,23.46,0,0,1-2.84.54A23.79,23.79,0,0,1,122.58,50.06Zm-1.25-27.3a6.67,6.67,0,0,0-1.85.26,4,4,0,0,0-1.56.85,4.86,4.86,0,0,0-1.14,1.53,5.51,5.51,0,0,0-.45,2.37h9.61a6,6,0,0,0-.31-2.37,4.28,4.28,0,0,0-1-1.53,3.58,3.58,0,0,0-1.51-.85A6.35,6.35,0,0,0,121.33,22.76Z"/><path class="cls-1" d="M141.64,29.19a17.36,17.36,0,0,1,1.47-7.62A13.48,13.48,0,0,1,147,16.73a14.66,14.66,0,0,1,5.32-2.56,23.89,23.89,0,0,1,5.83-.74,23.6,23.6,0,0,1,5.77.74,14.51,14.51,0,0,1,5.32,2.56,13.76,13.76,0,0,1,3.9,4.84,17.07,17.07,0,0,1,1.5,7.62v5.23a17.07,17.07,0,0,1-1.5,7.62,13.76,13.76,0,0,1-3.9,4.84,14.67,14.67,0,0,1-5.32,2.56,23.17,23.17,0,0,1-11.54,0A14.67,14.67,0,0,1,147,46.88a13.76,13.76,0,0,1-3.9-4.84,17.07,17.07,0,0,1-1.5-7.62Zm21.55-.51a6.57,6.57,0,0,0-.45-2.59,5.37,5.37,0,0,0-1.17-1.74,4.38,4.38,0,0,0-1.62-1,5.34,5.34,0,0,0-3.64,0,4.38,4.38,0,0,0-1.62,1,5.37,5.37,0,0,0-1.17,1.74,6.57,6.57,0,0,0-.45,2.59v6.25a6.57,6.57,0,0,0,.45,2.59,5.22,5.22,0,0,0,1.17,1.73,4.27,4.27,0,0,0,1.62,1,5.5,5.5,0,0,0,3.64,0,4.27,4.27,0,0,0,1.62-1,5.22,5.22,0,0,0,1.17-1.73,6.57,6.57,0,0,0,.45-2.59Z"/><circle class="cls-2" cx="61.19" cy="6.24" r="6.24"/><text class="cls-3" transform="translate(0 74.5)">미세먼지 싫어요</text></g></g></svg>